<svg width="317" height="52" viewBox="0 0 317 52" fill="none" xmlns="http://www.w3.org/2000/svg">
<g clip-path="url(#clip0_57_1504)">
<path d="M315 45.988C315 48.757 310.971 51 305.987 51H11.025C6.0435 51 2 48.757 2 45.988V6.01858C2 3.25084 6.0435 1 11.025 1H305.984C310.971 1 314.998 3.25084 314.998 6.01858L315 45.988Z" fill="black"/>
<path d="M305.259 1.04162C310.695 1.04162 315.119 3.4905 315.119 6.5V45.5C315.119 48.5095 310.695 50.9584 305.259 50.9584H11.7407C6.30478 50.9584 1.88145 48.5095 1.88145 45.5V6.5C1.88145 3.4905 6.30478 1.04162 11.7407 1.04162H305.259ZM305.259 -1.976e-06H11.7407C5.28627 -1.976e-06 0 2.92662 0 6.5V45.5C0 49.0734 5.28627 52 11.7407 52H305.259C311.714 52 317 49.0734 317 45.5V6.5C317 2.92662 311.714 -1.976e-06 305.259 -1.976e-06Z" fill="#A6A6A6"/>
<path d="M108.115 24.6371C108.076 20.4472 111.633 18.4088 111.796 18.3139C109.781 15.45 106.659 15.0587 105.561 15.0275C102.939 14.7584 100.395 16.5576 99.0588 16.5576C97.6961 16.5576 95.6388 15.0535 93.4215 15.0977C90.5681 15.1406 87.8988 16.7513 86.4348 19.2525C83.4135 24.3524 85.6668 31.8469 88.5615 35.9692C90.0095 37.9881 91.7015 40.2423 93.9161 40.163C96.0828 40.0759 96.8921 38.8162 99.5068 38.8162C102.097 38.8162 102.857 40.163 105.116 40.1123C107.441 40.0759 108.905 38.0843 110.303 36.0472C111.976 33.7332 112.648 31.4543 112.675 31.3373C112.62 31.3191 108.159 29.659 108.115 24.6371Z" fill="white"/>
<path d="M103.848 12.3157C105.013 10.8948 105.811 8.96169 105.589 6.99999C103.903 7.07279 101.793 8.13749 100.579 9.52719C99.5041 10.7518 98.5441 12.759 98.7921 14.6466C100.687 14.7844 102.632 13.7145 103.848 12.3157Z" fill="white"/>
<path d="M139.471 39.8731H136.443L134.784 34.7914H129.019L127.439 39.8731H124.491L130.203 22.5727H133.731L139.471 39.8731ZM134.284 32.6594L132.784 28.1419C132.625 27.6804 132.328 26.5936 131.889 24.8828H131.836C131.661 25.6186 131.38 26.7054 130.993 28.1419L129.52 32.6594H134.284Z" fill="white"/>
<path d="M154.16 33.4823C154.16 35.6039 153.572 37.2809 152.396 38.512C151.343 39.6079 150.035 40.1552 148.473 40.1552C146.788 40.1552 145.577 39.565 144.84 38.3846H144.787V44.9561H141.944V31.505C141.944 30.1712 141.908 28.8023 141.839 27.3983H144.339L144.497 29.3756H144.551C145.499 27.8858 146.937 27.1422 148.868 27.1422C150.377 27.1422 151.637 27.7233 152.645 28.8868C153.656 30.0516 154.16 31.583 154.16 33.4823ZM151.264 33.5837C151.264 32.3695 150.984 31.3685 150.421 30.5807C149.807 29.7591 148.981 29.3483 147.947 29.3483C147.245 29.3483 146.608 29.5771 146.039 30.0282C145.468 30.4832 145.095 31.0773 144.92 31.8131C144.832 32.1563 144.788 32.4371 144.788 32.6581V34.7381C144.788 35.6455 145.073 36.4112 145.644 37.0365C146.215 37.6618 146.956 37.9738 147.868 37.9738C148.939 37.9738 149.772 37.5708 150.368 36.7674C150.965 35.9627 151.264 34.9019 151.264 33.5837Z" fill="white"/>
<path d="M168.876 33.4823C168.876 35.6039 168.288 37.2809 167.111 38.512C166.059 39.6079 164.751 40.1552 163.189 40.1552C161.504 40.1552 160.293 39.565 159.557 38.3846H159.504V44.9561H156.661V31.505C156.661 30.1712 156.625 28.8023 156.556 27.3983H159.056L159.215 29.3756H159.268C160.215 27.8858 161.653 27.1422 163.585 27.1422C165.093 27.1422 166.353 27.7233 167.364 28.8868C168.371 30.0516 168.876 31.583 168.876 33.4823ZM165.98 33.5837C165.98 32.3695 165.699 31.3685 165.136 30.5807C164.521 29.7591 163.699 29.3483 162.663 29.3483C161.96 29.3483 161.324 29.5771 160.753 30.0282C160.183 30.4832 159.811 31.0773 159.636 31.8131C159.549 32.1563 159.504 32.4371 159.504 32.6581V34.7381C159.504 35.6455 159.789 36.4112 160.357 37.0365C160.928 37.6605 161.669 37.9738 162.584 37.9738C163.655 37.9738 164.488 37.5708 165.084 36.7674C165.681 35.9627 165.98 34.9019 165.98 33.5837Z" fill="white"/>
<path d="M185.329 35.0215C185.329 36.4931 184.805 37.6904 183.753 38.6147C182.597 39.6248 180.988 40.1292 178.92 40.1292C177.011 40.1292 175.48 39.7704 174.321 39.0515L174.98 36.7414C176.228 37.4772 177.597 37.8464 179.089 37.8464C180.16 37.8464 180.993 37.6098 181.592 37.1392C182.188 36.6686 182.485 36.0368 182.485 35.249C182.485 34.547 182.24 33.9555 181.748 33.4758C181.259 32.9961 180.441 32.5502 179.3 32.1381C176.193 31.0084 174.641 29.3535 174.641 27.1773C174.641 25.7551 175.185 24.589 176.275 23.6816C177.36 22.7729 178.808 22.3192 180.619 22.3192C182.233 22.3192 183.575 22.5935 184.645 23.1408L183.935 25.4002C182.935 24.8698 181.804 24.6046 180.539 24.6046C179.539 24.6046 178.757 24.8451 178.197 25.3235C177.724 25.7512 177.487 26.2725 177.487 26.89C177.487 27.5738 177.757 28.1393 178.301 28.5839C178.775 28.9947 179.635 29.4393 180.883 29.919C182.409 30.5183 183.531 31.219 184.252 32.0224C184.971 32.8232 185.329 33.8255 185.329 35.0215Z" fill="white"/>
<path d="M194.728 29.4783H191.595V35.535C191.595 37.0755 192.147 37.8451 193.253 37.8451C193.761 37.8451 194.183 37.8022 194.516 37.7164L194.595 39.8211C194.035 40.0252 193.297 40.1279 192.384 40.1279C191.261 40.1279 190.384 39.7938 189.751 39.1269C189.12 38.4587 188.803 37.3381 188.803 35.7638V29.4757H186.936V27.3957H188.803V25.1116L191.595 24.29V27.3957H194.728V29.4783Z" fill="white"/>
<path d="M208.865 33.533C208.865 35.4505 208.303 37.0248 207.18 38.2559C206.003 39.5234 204.44 40.1552 202.492 40.1552C200.615 40.1552 199.12 39.5481 198.005 38.3339C196.891 37.1197 196.333 35.587 196.333 33.7397C196.333 31.8066 196.907 30.2232 198.057 28.9921C199.205 27.7597 200.755 27.1435 202.703 27.1435C204.58 27.1435 206.091 27.7506 207.231 28.9661C208.321 30.1452 208.865 31.6675 208.865 33.533ZM205.916 33.6227C205.916 32.4722 205.664 31.4855 205.153 30.6626C204.557 29.6668 203.705 29.1702 202.601 29.1702C201.459 29.1702 200.591 29.6681 199.995 30.6626C199.484 31.4868 199.232 32.4891 199.232 33.6747C199.232 34.8252 199.484 35.8119 199.995 36.6335C200.609 37.6293 201.468 38.1259 202.576 38.1259C203.661 38.1259 204.513 37.6189 205.128 36.6075C205.652 35.769 205.916 34.7719 205.916 33.6227Z" fill="white"/>
<path d="M218.105 29.8358C217.824 29.7851 217.524 29.7591 217.209 29.7591C216.209 29.7591 215.436 30.127 214.892 30.8641C214.419 31.5141 214.181 32.3357 214.181 33.3276V39.8731H211.34L211.367 31.3269C211.367 29.8891 211.331 28.58 211.26 27.3996H213.736L213.84 29.7864H213.919C214.219 28.9661 214.692 28.3057 215.34 27.8104C215.973 27.3645 216.657 27.1422 217.395 27.1422C217.657 27.1422 217.895 27.1604 218.105 27.1929V29.8358Z" fill="white"/>
<path d="M230.819 33.0455C230.819 33.5421 230.785 33.9607 230.715 34.3026H222.187C222.22 35.535 222.632 36.4775 223.424 37.1275C224.143 37.7086 225.072 37.9998 226.213 37.9998C227.476 37.9998 228.628 37.8035 229.664 37.4096L230.109 39.3336C228.899 39.8484 227.469 40.1045 225.82 40.1045C223.836 40.1045 222.279 39.5351 221.145 38.3976C220.015 37.2601 219.448 35.7326 219.448 33.8164C219.448 31.9353 219.975 30.3688 221.029 29.1195C222.133 27.7857 223.625 27.1188 225.503 27.1188C227.347 27.1188 228.743 27.7857 229.691 29.1195C230.441 30.179 230.819 31.4894 230.819 33.0455ZM228.108 32.3266C228.127 31.505 227.941 30.7952 227.556 30.1959C227.064 29.425 226.308 29.0402 225.291 29.0402C224.361 29.0402 223.605 29.4159 223.028 30.1699C222.555 30.7692 222.273 31.4881 222.187 32.3253H228.108V32.3266Z" fill="white"/>
<path d="M133.344 11.9296C133.344 13.4597 132.874 14.6115 131.934 15.385C131.063 16.0987 129.826 16.4562 128.223 16.4562C127.428 16.4562 126.748 16.4224 126.179 16.3548V7.99453C126.922 7.87753 127.722 7.81773 128.586 7.81773C130.112 7.81773 131.263 8.14143 132.039 8.78883C132.908 9.52073 133.344 10.5672 133.344 11.9296ZM131.871 11.9673C131.871 10.9754 131.602 10.2149 131.063 9.68453C130.524 9.15543 129.738 8.89023 128.702 8.89023C128.262 8.89023 127.887 8.91883 127.576 8.97863V15.3343C127.748 15.3603 128.063 15.372 128.52 15.372C129.59 15.372 130.415 15.0821 130.996 14.5023C131.578 13.9225 131.871 13.0775 131.871 11.9673Z" fill="white"/>
<path d="M141.156 13.266C141.156 14.2085 140.88 14.9807 140.328 15.5865C139.749 16.2092 138.983 16.5199 138.025 16.5199C137.103 16.5199 136.368 16.2222 135.82 15.6242C135.273 15.0275 135 14.2748 135 13.3674C135 12.4184 135.281 11.6397 135.847 11.0352C136.412 10.4307 137.172 10.1278 138.129 10.1278C139.052 10.1278 139.793 10.4255 140.355 11.0222C140.888 11.602 141.156 12.3508 141.156 13.266ZM139.707 13.3102C139.707 12.7447 139.581 12.2598 139.332 11.8555C139.039 11.3667 138.621 11.1223 138.079 11.1223C137.517 11.1223 137.091 11.3667 136.797 11.8555C136.547 12.2598 136.423 12.7525 136.423 13.3349C136.423 13.9004 136.548 14.3853 136.797 14.7896C137.1 15.2784 137.521 15.5228 138.065 15.5228C138.599 15.5228 139.017 15.2745 139.319 14.7766C139.577 14.3645 139.707 13.8757 139.707 13.3102Z" fill="white"/>
<path d="M151.631 10.2526L149.664 16.3808H148.384L147.57 13.7197C147.363 13.0554 147.195 12.395 147.064 11.7398H147.039C146.917 12.4132 146.75 13.0723 146.534 13.7197L145.668 16.3808H144.373L142.524 10.2526H143.96L144.671 13.1659C144.843 13.8549 144.984 14.5114 145.098 15.1328H145.123C145.227 14.6206 145.399 13.968 145.641 13.1789L146.534 10.2539H147.672L148.527 13.1165C148.733 13.8146 148.901 14.4867 149.031 15.1341H149.069C149.164 14.5036 149.307 13.8315 149.496 13.1165L150.259 10.2539H151.631V10.2526Z" fill="white"/>
<path d="M158.875 16.3808H157.477V12.8708C157.477 11.7892 157.056 11.2484 156.211 11.2484C155.796 11.2484 155.461 11.3966 155.201 11.6943C154.944 11.992 154.813 12.343 154.813 12.7447V16.3795H153.416V12.0037C153.416 11.4655 153.399 10.8818 153.365 10.25H154.593L154.659 11.2081H154.697C154.86 10.9104 155.103 10.6647 155.421 10.4684C155.8 10.2396 156.224 10.1239 156.688 10.1239C157.275 10.1239 157.763 10.3085 158.151 10.679C158.633 11.1327 158.875 11.81 158.875 12.7096V16.3808Z" fill="white"/>
<path d="M162.728 16.3808H161.332V7.44072H162.728V16.3808Z" fill="white"/>
<path d="M170.955 13.266C170.955 14.2085 170.679 14.9807 170.127 15.5865C169.548 16.2092 168.78 16.5199 167.824 16.5199C166.9 16.5199 166.165 16.2222 165.619 15.6242C165.072 15.0275 164.799 14.2748 164.799 13.3674C164.799 12.4184 165.08 11.6397 165.645 11.0352C166.211 10.4307 166.971 10.1278 167.927 10.1278C168.851 10.1278 169.591 10.4255 170.153 11.0222C170.687 11.602 170.955 12.3508 170.955 13.266ZM169.504 13.3102C169.504 12.7447 169.379 12.2598 169.129 11.8555C168.837 11.3667 168.419 11.1223 167.877 11.1223C167.315 11.1223 166.888 11.3667 166.596 11.8555C166.345 12.2598 166.221 12.7525 166.221 13.3349C166.221 13.9004 166.347 14.3853 166.596 14.7896C166.899 15.2784 167.32 15.5228 167.864 15.5228C168.397 15.5228 168.815 15.2745 169.116 14.7766C169.376 14.3645 169.504 13.8757 169.504 13.3102Z" fill="white"/>
<path d="M177.717 16.3808H176.463L176.359 15.6749H176.32C175.891 16.2378 175.279 16.5199 174.484 16.5199C173.891 16.5199 173.411 16.334 173.049 15.9648C172.721 15.6294 172.557 15.2121 172.557 14.7168C172.557 13.968 172.877 13.3973 173.521 13.0021C174.164 12.6069 175.068 12.4132 176.232 12.4223V12.3079C176.232 11.5006 175.797 11.0976 174.927 11.0976C174.307 11.0976 173.76 11.2497 173.288 11.5513L173.004 10.6569C173.588 10.3046 174.309 10.1278 175.16 10.1278C176.803 10.1278 177.627 10.9728 177.627 12.6628V14.9196C177.627 15.5319 177.657 16.0194 177.717 16.3808ZM176.267 14.2748V13.3297C174.725 13.3037 173.955 13.7158 173.955 14.5647C173.955 14.8845 174.043 15.1237 174.223 15.2836C174.403 15.4435 174.632 15.5228 174.905 15.5228C175.212 15.5228 175.499 15.4279 175.76 15.2394C176.023 15.0496 176.184 14.8091 176.244 14.514C176.259 14.4477 176.267 14.3671 176.267 14.2748Z" fill="white"/>
<path d="M185.657 16.3808H184.417L184.352 15.3967H184.313C183.917 16.1455 183.243 16.5199 182.295 16.5199C181.537 16.5199 180.907 16.23 180.407 15.6502C179.907 15.0704 179.657 14.3177 179.657 13.3934C179.657 12.4015 179.928 11.5981 180.472 10.9845C180.999 10.4125 181.644 10.1265 182.412 10.1265C183.256 10.1265 183.847 10.4034 184.183 10.9585H184.209V7.44072H185.608V14.7298C185.608 15.3265 185.624 15.8764 185.657 16.3808ZM184.209 13.7964V12.7746C184.209 12.5978 184.196 12.4548 184.171 12.3456C184.092 12.018 183.923 11.7424 183.665 11.5201C183.405 11.2978 183.092 11.186 182.731 11.186C182.209 11.186 181.801 11.3875 181.501 11.7918C181.204 12.1961 181.053 12.7122 181.053 13.3427C181.053 13.9485 181.196 14.4399 181.483 14.8182C181.785 15.2212 182.193 15.4227 182.704 15.4227C183.163 15.4227 183.529 15.255 183.808 14.9183C184.077 14.6076 184.209 14.2332 184.209 13.7964Z" fill="white"/>
<path d="M197.608 13.266C197.608 14.2085 197.332 14.9807 196.78 15.5865C196.201 16.2092 195.436 16.5199 194.477 16.5199C193.556 16.5199 192.821 16.2222 192.272 15.6242C191.725 15.0275 191.452 14.2748 191.452 13.3674C191.452 12.4184 191.733 11.6397 192.299 11.0352C192.864 10.4307 193.624 10.1278 194.583 10.1278C195.504 10.1278 196.247 10.4255 196.807 11.0222C197.34 11.602 197.608 12.3508 197.608 13.266ZM196.16 13.3102C196.16 12.7447 196.035 12.2598 195.785 11.8555C195.491 11.3667 195.075 11.1223 194.531 11.1223C193.971 11.1223 193.544 11.3667 193.249 11.8555C192.999 12.2598 192.875 12.7525 192.875 13.3349C192.875 13.9004 193 14.3853 193.249 14.7896C193.552 15.2784 193.973 15.5228 194.517 15.5228C195.051 15.5228 195.471 15.2745 195.772 14.7766C196.029 14.3645 196.16 13.8757 196.16 13.3102Z" fill="white"/>
<path d="M205.122 16.3808H203.726V12.8708C203.726 11.7892 203.304 11.2484 202.458 11.2484C202.043 11.2484 201.708 11.3966 201.45 11.6943C201.191 11.992 201.062 12.343 201.062 12.7447V16.3795H199.663V12.0037C199.663 11.4655 199.647 10.8818 199.614 10.25H200.84L200.906 11.2081H200.944C201.108 10.9104 201.351 10.6647 201.668 10.4684C202.048 10.2396 202.471 10.1239 202.936 10.1239C203.522 10.1239 204.01 10.3085 204.398 10.679C204.882 11.1327 205.122 11.81 205.122 12.7096V16.3808Z" fill="white"/>
<path d="M214.525 11.2731H212.987V14.2501C212.987 15.0067 213.26 15.385 213.801 15.385C214.052 15.385 214.26 15.3642 214.424 15.3213L214.46 16.3548C214.184 16.4562 213.821 16.5069 213.375 16.5069C212.823 16.5069 212.393 16.3431 212.083 16.0155C211.771 15.6879 211.616 15.1367 211.616 14.3632V11.2731H210.698V10.2526H211.616V9.12943L212.986 8.72643V10.2513H214.524V11.2731H214.525Z" fill="white"/>
<path d="M221.923 16.3808H220.524V12.8968C220.524 11.7983 220.103 11.2484 219.259 11.2484C218.611 11.2484 218.168 11.5669 217.925 12.2039C217.884 12.3378 217.86 12.5016 217.86 12.694V16.3795H216.464V7.44072H217.86V11.134H217.887C218.327 10.4619 218.957 10.1265 219.775 10.1265C220.353 10.1265 220.832 10.3111 221.212 10.6816C221.685 11.1431 221.923 11.8295 221.923 12.7369V16.3808Z" fill="white"/>
<path d="M229.553 13.0268C229.553 13.2712 229.535 13.4766 229.501 13.6443H225.311C225.329 14.2501 225.529 14.7116 225.917 15.0314C226.272 15.3174 226.729 15.4604 227.289 15.4604C227.909 15.4604 228.475 15.3642 228.984 15.1705L229.203 16.1169C228.607 16.3691 227.905 16.4952 227.093 16.4952C226.12 16.4952 225.353 16.2157 224.799 15.6567C224.241 15.0977 223.965 14.3476 223.965 13.4064C223.965 12.4821 224.223 11.7125 224.741 11.0989C225.283 10.4437 226.015 10.1161 226.939 10.1161C227.843 10.1161 228.529 10.4437 228.993 11.0989C229.368 11.6189 229.553 12.2624 229.553 13.0268ZM228.22 12.6745C228.231 12.2702 228.139 11.9218 227.949 11.628C227.707 11.2497 227.337 11.0599 226.837 11.0599C226.381 11.0599 226.009 11.2445 225.725 11.615C225.493 11.9101 225.356 12.2624 225.311 12.6745H228.22Z" fill="white"/>
</g>
<defs>
<clipPath id="clip0_57_1504">
<rect width="317" height="52" fill="white"/>
</clipPath>
</defs>
</svg>
