<svg width="1511" height="80" viewBox="0 0 1511 80" fill="none" xmlns="http://www.w3.org/2000/svg">
<path d="M-78 16.8842V82.8842H96V16.8842C82 17.3842 72 18.032 55 10.8603C19.5 -4.1158 -2.5 -3.11585 -37 10.8603C-52.5929 17.1771 -71 16.7175 -78 16.8842Z" fill="black" fill-opacity="0.08"/>
<path d="M96 16.8842V82.8842H270V16.8842C256 17.3842 246 18.032 229 10.8603C193.5 -4.1158 171.5 -3.11585 137 10.8603C121.407 17.1771 103 16.7175 96 16.8842Z" fill="black" fill-opacity="0.08"/>
<path d="M270 16.8842V82.8842H444V16.8842C430 17.3842 420 18.032 403 10.8603C367.5 -4.1158 345.5 -3.11585 311 10.8603C295.407 17.1771 277 16.7175 270 16.8842Z" fill="black" fill-opacity="0.08"/>
<path d="M444 16.8842V82.8842H618V16.8842C604 17.3842 594 18.032 577 10.8603C541.5 -4.1158 519.5 -3.11585 485 10.8603C469.407 17.1771 451 16.7175 444 16.8842Z" fill="black" fill-opacity="0.08"/>
<path d="M618 16.8842V82.8842H792V16.8842C778 17.3842 768 18.032 751 10.8603C715.5 -4.1158 693.5 -3.11585 659 10.8603C643.407 17.1771 625 16.7175 618 16.8842Z" fill="black" fill-opacity="0.08"/>
<path d="M792 16.8842V82.8842H966V16.8842C952 17.3842 942 18.032 925 10.8603C889.5 -4.1158 867.5 -3.11585 833 10.8603C817.407 17.1771 799 16.7175 792 16.8842Z" fill="black" fill-opacity="0.08"/>
<path d="M966 16.8842V82.8842H1140V16.8842C1126 17.3842 1116 18.032 1099 10.8603C1063.5 -4.1158 1041.5 -3.11585 1007 10.8603C991.407 17.1771 973 16.7175 966 16.8842Z" fill="black" fill-opacity="0.08"/>
<path d="M1140 16.8842V82.8842H1314V16.8842C1300 17.3842 1290 18.032 1273 10.8603C1237.5 -4.1158 1215.5 -3.11585 1181 10.8603C1165.41 17.1771 1147 16.7175 1140 16.8842Z" fill="black" fill-opacity="0.08"/>
<path d="M1314 16.8842V82.8842H1488V16.8842C1474 17.3842 1464 18.032 1447 10.8603C1411.5 -4.1158 1389.5 -3.11585 1355 10.8603C1339.41 17.1771 1321 16.7175 1314 16.8842Z" fill="black" fill-opacity="0.08"/>
<path d="M1488 16.8842V82.8842H1662V16.8842C1648 17.3842 1638 18.032 1621 10.8603C1585.5 -4.1158 1563.5 -3.11585 1529 10.8603C1513.41 17.1771 1495 16.7175 1488 16.8842Z" fill="black" fill-opacity="0.08"/>
</svg>
