<svg width="317" height="52" viewBox="0 0 317 52" fill="none" xmlns="http://www.w3.org/2000/svg">
<path d="M305.259 52H11.7407C5.28627 52 0 49.0734 0 45.5V6.5C0 2.92663 5.28627 2.74817e-06 11.7407 2.74817e-06H305.259C311.714 2.74817e-06 317 2.92663 317 6.5V45.5C317 49.0734 311.714 52 305.259 52Z" fill="black"/>
<path d="M305.259 1.04162C310.695 1.04162 315.119 3.4905 315.119 6.5V45.5C315.119 48.5095 310.695 50.9584 305.259 50.9584H11.7407C6.30478 50.9584 1.88145 48.5095 1.88145 45.5V6.5C1.88145 3.4905 6.30478 1.04162 11.7407 1.04162H305.259ZM305.259 2.74817e-06H11.7407C5.28627 2.74817e-06 0 2.92663 0 6.5V45.5C0 49.0734 5.28627 52 11.7407 52H305.259C311.714 52 317 49.0734 317 45.5V6.5C317 2.92663 311.714 2.74817e-06 305.259 2.74817e-06Z" fill="#A6A6A6"/>
<path d="M127.751 12.3924C127.751 13.4779 127.386 14.3473 126.667 14.9956C125.84 15.7643 124.763 16.151 123.443 16.151C122.181 16.151 121.104 15.7577 120.221 14.9826C119.335 14.1961 118.893 13.2309 118.893 12.0755C118.893 10.9201 119.335 9.95488 120.221 9.17488C121.104 8.39325 122.181 8 123.443 8C124.071 8 124.67 8.11538 125.241 8.32988C125.811 8.546 126.274 8.8385 126.61 9.19925L125.847 9.885C125.261 9.26913 124.463 8.96525 123.443 8.96525C122.523 8.96525 121.725 9.25125 121.048 9.82812C120.378 10.4066 120.042 11.1558 120.042 12.0755C120.042 12.9952 120.378 13.7509 121.048 14.3294C121.725 14.8997 122.523 15.1922 123.443 15.1922C124.42 15.1922 125.241 14.8997 125.889 14.3229C126.316 13.941 126.559 13.4145 126.623 12.7417H123.443V11.8025H127.686C127.737 12.0056 127.751 12.2022 127.751 12.3924Z" fill="white" stroke="white" stroke-width="0.16" stroke-miterlimit="10"/>
<path d="M134.482 9.13587H130.497V11.6059H134.09V12.5451H130.497V15.0151H134.482V15.9722H129.369V8.17874H134.482V9.13587Z" fill="white" stroke="white" stroke-width="0.16" stroke-miterlimit="10"/>
<path d="M139.233 15.9722H138.104V9.13587H135.66V8.17874H141.679V9.13587H139.233V15.9722Z" fill="white" stroke="white" stroke-width="0.16" stroke-miterlimit="10"/>
<path d="M146.035 15.9722V8.17874H147.161V15.9722H146.035Z" fill="white" stroke="white" stroke-width="0.16" stroke-miterlimit="10"/>
<path d="M152.155 15.9722H151.035V9.13587H148.582V8.17874H154.608V9.13587H152.155V15.9722Z" fill="white" stroke="white" stroke-width="0.16" stroke-miterlimit="10"/>
<path d="M166.004 14.9696C165.14 15.7577 164.07 16.151 162.794 16.151C161.511 16.151 160.441 15.7577 159.578 14.9696C158.716 14.1831 158.287 13.2179 158.287 12.0755C158.287 10.9331 158.716 9.96788 159.578 9.18138C160.441 8.39325 161.511 8 162.794 8C164.063 8 165.133 8.39325 165.997 9.18787C166.866 9.98087 167.295 10.9396 167.295 12.0755C167.295 13.2179 166.866 14.1831 166.004 14.9696ZM160.412 14.3164C161.062 14.8997 161.852 15.1922 162.794 15.1922C163.729 15.1922 164.527 14.8997 165.169 14.3164C165.818 13.733 166.146 12.9839 166.146 12.0755C166.146 11.1671 165.818 10.418 165.169 9.83463C164.527 9.25125 163.729 8.95875 162.794 8.95875C161.852 8.95875 161.062 9.25125 160.412 9.83463C159.764 10.418 159.435 11.1671 159.435 12.0755C159.435 12.9839 159.764 13.733 160.412 14.3164Z" fill="white" stroke="white" stroke-width="0.16" stroke-miterlimit="10"/>
<path d="M168.877 15.9722V8.17874H170.247L174.504 14.24H174.553L174.504 12.7417V8.17874H175.63V15.9722H174.455L169.996 9.61199H169.947L169.996 11.1167V15.9722H168.877Z" fill="white" stroke="white" stroke-width="0.16" stroke-miterlimit="10"/>
<path d="M158.009 27.3538C154.579 27.3538 151.777 29.6775 151.777 32.8836C151.777 36.0638 154.579 38.4119 158.009 38.4119C161.447 38.4119 164.249 36.0638 164.249 32.8836C164.249 29.6775 161.447 27.3538 158.009 27.3538ZM158.009 36.2344C156.127 36.2344 154.508 34.8515 154.508 32.8836C154.508 30.8898 156.127 29.5313 158.009 29.5313C159.891 29.5313 161.518 30.8898 161.518 32.8836C161.518 34.8515 159.891 36.2344 158.009 36.2344ZM144.41 27.3538C140.972 27.3538 138.177 29.6775 138.177 32.8836C138.177 36.0638 140.972 38.4119 144.41 38.4119C147.846 38.4119 150.643 36.0638 150.643 32.8836C150.643 29.6775 147.846 27.3538 144.41 27.3538ZM144.41 36.2344C142.526 36.2344 140.901 34.8515 140.901 32.8836C140.901 30.8898 142.526 29.5313 144.41 29.5313C146.292 29.5313 147.912 30.8898 147.912 32.8836C147.912 34.8515 146.292 36.2344 144.41 36.2344ZM128.228 29.0486V31.3984H134.532C134.347 32.7114 133.854 33.6766 133.099 34.3494C132.178 35.1619 130.745 36.0638 128.228 36.0638C124.348 36.0638 121.31 33.2769 121.31 29.8238C121.31 26.3706 124.348 23.5838 128.228 23.5838C130.325 23.5838 131.852 24.3134 132.978 25.2591L134.838 23.6033C133.263 22.2643 131.167 21.2356 128.228 21.2356C122.908 21.2356 118.437 25.0885 118.437 29.8238C118.437 34.559 122.908 38.4119 128.228 38.4119C131.103 38.4119 133.263 37.5734 134.961 36.0004C136.7 34.4518 137.243 32.2743 137.243 30.516C137.243 29.97 137.192 29.4679 137.1 29.0486H128.228ZM194.4 30.8703C193.887 29.6336 192.304 27.3538 189.08 27.3538C185.885 27.3538 183.225 29.5946 183.225 32.8836C183.225 35.9809 185.857 38.4119 189.386 38.4119C192.24 38.4119 193.887 36.8633 194.564 35.9614L192.446 34.7053C191.74 35.625 190.777 36.2344 189.386 36.2344C188.004 36.2344 187.013 35.6705 186.378 34.559L194.686 31.4991L194.4 30.8703ZM185.929 32.7114C185.857 30.5794 187.789 29.4874 189.173 29.4874C190.257 29.4874 191.177 29.97 191.484 30.6606L185.929 32.7114ZM179.176 38.0755H181.907V21.8255H179.176V38.0755ZM174.703 28.5855H174.612C173.998 27.9388 172.828 27.3538 171.345 27.3538C168.235 27.3538 165.39 29.7848 165.39 32.9015C165.39 36.0004 168.235 38.4119 171.345 38.4119C172.828 38.4119 173.998 37.822 174.612 37.1558H174.703V37.9488C174.703 40.0629 173.434 41.1988 171.387 41.1988C169.719 41.1988 168.684 40.1263 168.256 39.2244L165.881 40.1068C166.566 41.5725 168.379 43.3763 171.387 43.3763C174.59 43.3763 177.292 41.6993 177.292 37.6189V27.6901H174.703V28.5855ZM171.579 36.2344C169.697 36.2344 168.121 34.832 168.121 32.9015C168.121 30.9531 169.697 29.5313 171.579 29.5313C173.434 29.5313 174.896 30.9531 174.896 32.9015C174.896 34.832 173.434 36.2344 171.579 36.2344ZM207.186 21.8255H200.654V38.0755H203.378V31.9184H207.186C210.211 31.9184 213.178 29.97 213.178 26.8711C213.178 23.7739 210.204 21.8255 207.186 21.8255ZM207.257 29.658H203.378V24.0859H207.257C209.291 24.0859 210.452 25.589 210.452 26.8711C210.452 28.1289 209.291 29.658 207.257 29.658ZM224.095 27.3229C222.127 27.3229 220.081 28.0964 219.239 29.8108L221.656 30.7126C222.176 29.8108 223.133 29.5183 224.144 29.5183C225.558 29.5183 226.991 30.2739 227.013 31.608V31.7786C226.52 31.5251 225.464 31.1498 224.166 31.1498C221.563 31.1498 218.91 32.4254 218.91 34.806C218.91 36.9835 221.043 38.3859 223.44 38.3859C225.273 38.3859 226.284 37.6498 226.919 36.7934H227.013V38.0495H229.643V31.816C229.643 28.9349 227.226 27.3229 224.095 27.3229ZM223.767 36.2279C222.876 36.2279 221.634 35.8346 221.634 34.8515C221.634 33.5938 223.182 33.1111 224.522 33.1111C225.722 33.1111 226.284 33.3468 227.013 33.6571C226.799 35.1619 225.344 36.2279 223.767 36.2279ZM239.228 27.6788L236.097 34.7231H236.004L232.767 27.6788H229.83L234.693 37.523L231.918 43.0009H234.764L242.258 27.6788H239.228ZM214.675 38.0755H217.406V21.8255H214.675V38.0755Z" fill="white"/>
<path d="M76.6773 10.8004C76.2483 11.2001 76 11.8225 76 12.6285V41.378C76 42.184 76.2483 42.8064 76.6773 43.2061L76.7832 43.2939L94.8825 27.1901V26.8099L76.7832 10.7061L76.6773 10.8004Z" fill="url(#paint0_linear_57_1478)"/>
<path d="M100.909 32.5607L94.8824 27.1901V26.8099L100.916 21.4392L101.051 21.5091L108.197 25.128C110.236 26.155 110.236 27.845 108.197 28.8785L101.051 32.4909L100.909 32.5607Z" fill="url(#paint1_linear_57_1478)"/>
<path d="M101.051 32.4909L94.8826 27L76.6774 43.2061C77.3547 43.8399 78.4592 43.9162 79.7152 43.2825L101.051 32.4909Z" fill="url(#paint2_linear_57_1478)"/>
<path d="M101.051 21.5091L79.7152 10.7175C78.4592 10.0903 77.3547 10.1666 76.6774 10.8004L94.8826 27L101.051 21.5091Z" fill="url(#paint3_linear_57_1478)"/>
<defs>
<linearGradient id="paint0_linear_57_1478" x1="93.2755" y1="41.6774" x2="71.6054" y2="17.3318" gradientUnits="userSpaceOnUse">
<stop stop-color="#00A0FF"/>
<stop offset="0.0066" stop-color="#00A1FF"/>
<stop offset="0.2601" stop-color="#00BEFF"/>
<stop offset="0.5122" stop-color="#00D2FF"/>
<stop offset="0.7604" stop-color="#00DFFF"/>
<stop offset="1" stop-color="#00E3FF"/>
</linearGradient>
<linearGradient id="paint1_linear_57_1478" x1="110.852" y1="26.9982" x2="75.5125" y2="26.9982" gradientUnits="userSpaceOnUse">
<stop stop-color="#FFE000"/>
<stop offset="0.4087" stop-color="#FFBD00"/>
<stop offset="0.7754" stop-color="#FFA500"/>
<stop offset="1" stop-color="#FF9C00"/>
</linearGradient>
<linearGradient id="paint2_linear_57_1478" x1="97.6969" y1="24.0151" x2="68.3105" y2="-8.99954" gradientUnits="userSpaceOnUse">
<stop stop-color="#FF3A44"/>
<stop offset="1" stop-color="#C31162"/>
</linearGradient>
<linearGradient id="paint3_linear_57_1478" x1="72.0947" y1="52.7709" x2="85.2171" y2="38.0286" gradientUnits="userSpaceOnUse">
<stop stop-color="#32A071"/>
<stop offset="0.0685" stop-color="#2DA771"/>
<stop offset="0.4762" stop-color="#15CF74"/>
<stop offset="0.8009" stop-color="#06E775"/>
<stop offset="1" stop-color="#00F076"/>
</linearGradient>
</defs>
</svg>
