<svg width="31" height="42" viewBox="0 0 31 42" fill="none" xmlns="http://www.w3.org/2000/svg">
<path d="M4.88519 41H26.114C28.0179 41 29.5323 39.4337 29.3275 37.6288C28.0054 26 20.115 26.1923 20.115 21C20.115 15.8077 28.1063 16.0962 29.3265 4.37115C29.5188 2.56538 28.0179 1 26.114 1H4.88519C2.98134 1 1.48422 2.56538 1.67269 4.37115C2.89288 16.0962 10.8842 15.7115 10.8842 21C10.8842 26.2885 2.99384 26 1.67269 37.6288C1.46692 39.4337 2.98134 41 4.88519 41Z" stroke="#FFD700" stroke-width="1.5" stroke-linecap="round" stroke-linejoin="round"/>
<path d="M23.8938 37.923H7.14669C5.64669 37.923 5.22361 36.1923 6.27553 35.1192C8.82169 32.5384 13.9611 30.6903 13.9611 27.7307V17.923C13.9611 16.0144 10.3073 14.5576 8.04669 11.4615C7.67361 10.9509 7.71111 10.2307 8.65918 10.2307H22.3832C23.1919 10.2307 23.3669 10.9451 22.9986 11.4567C20.7707 14.5576 17.038 16.0048 17.038 17.923V27.7307C17.038 30.6663 22.3948 32.2499 24.7688 35.1221C25.7255 36.2798 25.3909 37.923 23.8938 37.923Z" fill="#FFD700"/>
</svg>
