<svg width="41" height="40" viewBox="0 0 41 40" fill="none" xmlns="http://www.w3.org/2000/svg">
<path d="M20.5 0C9.83333 0 0.5 8.57778 0.5 20C0.5 24.7111 2.14444 29.0444 4.87778 32.4667L0.5 36.8667L3.63333 40L8.01111 35.6222C11.5577 38.4545 15.9612 39.9981 20.5 40C25.6111 40 30.7444 38.0444 34.6333 34.1333C36.496 32.2816 37.9734 30.0793 38.9803 27.6535C39.9873 25.2277 40.5038 22.6265 40.5 20V0H20.5ZM29.0111 20.5778L17.5444 30.8667C17.1889 31.2 16.6333 31.1778 16.3 30.8444C16.1482 30.695 16.0555 30.4957 16.0392 30.2833C16.0229 30.0709 16.0839 29.8598 16.2111 29.6889L21.6333 22.2889L12.6333 21.4C12.4134 21.3794 12.2043 21.2954 12.0311 21.1583C11.8579 21.0213 11.7282 20.8369 11.6577 20.6276C11.5871 20.4183 11.5788 20.1931 11.6336 19.9792C11.6885 19.7652 11.8041 19.5718 11.9667 19.4222L23.4333 9.13333C23.7889 8.8 24.3444 8.82222 24.6778 9.15556C24.9889 9.46667 25.0333 9.95556 24.7667 10.3111L19.3444 17.7111L28.3444 18.6C29.3444 18.6889 29.7444 19.9111 29.0111 20.5778Z" fill="#FFD700"/>
</svg>
