<svg width="61" height="40" viewBox="0 0 61 40" fill="none" xmlns="http://www.w3.org/2000/svg">
<path d="M7.6875 23.75L5.8125 20H18.9375L17.4375 16.25H5.1875L3.3125 12.5H22.8125L21.3125 8.75H2.9625L0.8125 5H10.1875C10.1875 3.67392 10.7143 2.40215 11.652 1.46447C12.5896 0.526784 13.8614 0 15.1875 0H45.1875V10H52.6875L60.1875 20V32.5H55.1875C55.1875 34.4891 54.3973 36.3968 52.9908 37.8033C51.5843 39.2098 49.6766 40 47.6875 40C45.6984 40 43.7907 39.2098 42.3842 37.8033C40.9777 36.3968 40.1875 34.4891 40.1875 32.5H30.1875C30.1875 34.4891 29.3973 36.3968 27.9908 37.8033C26.5843 39.2098 24.6766 40 22.6875 40C20.6984 40 18.7907 39.2098 17.3842 37.8033C15.9777 36.3968 15.1875 34.4891 15.1875 32.5H10.1875V23.75H7.6875ZM47.6875 36.25C48.6821 36.25 49.6359 35.8549 50.3391 35.1516C51.0424 34.4484 51.4375 33.4946 51.4375 32.5C51.4375 31.5054 51.0424 30.5516 50.3391 29.8483C49.6359 29.1451 48.6821 28.75 47.6875 28.75C46.6929 28.75 45.7391 29.1451 45.0359 29.8483C44.3326 30.5516 43.9375 31.5054 43.9375 32.5C43.9375 33.4946 44.3326 34.4484 45.0359 35.1516C45.7391 35.8549 46.6929 36.25 47.6875 36.25ZM51.4375 13.75H45.1875V20H56.3375L51.4375 13.75ZM22.6875 36.25C23.6821 36.25 24.6359 35.8549 25.3392 35.1516C26.0424 34.4484 26.4375 33.4946 26.4375 32.5C26.4375 31.5054 26.0424 30.5516 25.3392 29.8483C24.6359 29.1451 23.6821 28.75 22.6875 28.75C21.6929 28.75 20.7391 29.1451 20.0358 29.8483C19.3326 30.5516 18.9375 31.5054 18.9375 32.5C18.9375 33.4946 19.3326 34.4484 20.0358 35.1516C20.7391 35.8549 21.6929 36.25 22.6875 36.25Z" fill="#FFD700"/>
</svg>
